<svg width="151" height="101" viewBox="0 0 151 101" fill="none" xmlns="http://www.w3.org/2000/svg">
<rect y="3" width="110" height="45" fill="#DCB84C"/>
<rect x="33" y="54" width="105" height="47" fill="#DCB84C"/>
<path d="M29.7341 42C29.0887 40.9147 28.3407 39.6973 27.4901 38.348C26.6687 36.9987 25.774 35.6053 24.8061 34.168C23.838 32.7013 22.826 31.22 21.77 29.724C20.7434 28.228 19.7167 26.7907 18.69 25.412C17.6634 24.004 16.666 22.684 15.698 21.452C14.73 20.22 13.8354 19.1347 13.014 18.196V42H8.83405V11.508H12.222C13.6007 12.9747 15.0674 14.6907 16.622 16.656C18.206 18.592 19.7607 20.6013 21.286 22.684C22.8407 24.7373 24.2927 26.7613 25.642 28.756C27.0207 30.7507 28.1794 32.5253 29.1181 34.08V11.508H33.298V42H29.7341ZM40.8458 42V11.508H59.2378V15.16H45.1138V24.356H57.6538V27.964H45.1138V42H40.8458ZM85.4521 11.508V15.204H75.8601V42H71.5921V15.204H62.0001V11.508H85.4521ZM93.0425 39.052C94.7145 39.052 95.9465 38.832 96.7385 38.392C97.5598 37.952 97.9705 37.248 97.9705 36.28C97.9705 35.2827 97.5745 34.4907 96.7825 33.904C95.9905 33.3173 94.6852 32.6573 92.8665 31.924C91.9865 31.572 91.1358 31.22 90.3145 30.868C89.5225 30.4867 88.8332 30.0467 88.2465 29.548C87.6598 29.0493 87.1905 28.448 86.8385 27.744C86.4865 27.04 86.3105 26.1747 86.3105 25.148C86.3105 23.124 87.0585 21.5253 88.5545 20.352C90.0505 19.1493 92.0892 18.548 94.6705 18.548C95.3158 18.548 95.9612 18.592 96.6065 18.68C97.2518 18.7387 97.8532 18.8267 98.4105 18.944C98.9678 19.032 99.4518 19.1347 99.8625 19.252C100.302 19.3693 100.64 19.472 100.874 19.56L100.126 23.08C99.6865 22.8453 98.9972 22.6107 98.0585 22.376C97.1198 22.112 95.9905 21.98 94.6705 21.98C93.5265 21.98 92.5292 22.2147 91.6785 22.684C90.8278 23.124 90.4025 23.828 90.4025 24.796C90.4025 25.2947 90.4905 25.7347 90.6665 26.116C90.8718 26.4973 91.1652 26.8493 91.5465 27.172C91.9572 27.4653 92.4558 27.744 93.0425 28.008C93.6292 28.272 94.3332 28.5507 95.1545 28.844C96.2398 29.2547 97.2078 29.6653 98.0585 30.076C98.9092 30.4573 99.6278 30.912 100.214 31.44C100.83 31.968 101.3 32.6133 101.622 33.376C101.945 34.1093 102.106 35.0187 102.106 36.104C102.106 38.216 101.314 39.8147 99.7305 40.9C98.1758 41.9853 95.9465 42.528 93.0425 42.528C91.0185 42.528 89.4345 42.352 88.2905 42C87.1465 41.6773 86.3692 41.428 85.9585 41.252L86.7065 37.732C87.1758 37.908 87.9238 38.172 88.9505 38.524C89.9772 38.876 91.3412 39.052 93.0425 39.052ZM43.9608 90.624C43.9608 91.416 43.6968 92.1053 43.1688 92.692C42.6408 93.2787 41.9222 93.572 41.0128 93.572C40.1035 93.572 39.3848 93.2787 38.8568 92.692C38.3288 92.1053 38.0648 91.416 38.0648 90.624C38.0648 89.832 38.3288 89.1427 38.8568 88.556C39.3848 87.9693 40.1035 87.676 41.0128 87.676C41.9222 87.676 42.6408 87.9693 43.1688 88.556C43.6968 89.1427 43.9608 89.832 43.9608 90.624ZM65.129 80.24C65.5983 80.8267 66.185 81.604 66.889 82.572C67.6223 83.5107 68.3703 84.5667 69.133 85.74C69.8956 86.884 70.6436 88.0867 71.377 89.348C72.1396 90.6093 72.785 91.8267 73.313 93H68.649C68.0623 91.8853 67.417 90.756 66.713 89.612C66.0383 88.468 65.349 87.3827 64.645 86.356C63.941 85.3 63.237 84.3173 62.533 83.408C61.8583 82.4987 61.2423 81.7067 60.685 81.032C60.3036 81.0613 59.9076 81.076 59.497 81.076C59.1156 81.076 58.7196 81.076 58.309 81.076H54.481V93H50.213V62.948C51.4156 62.6547 52.7503 62.464 54.217 62.376C55.713 62.2587 57.077 62.2 58.309 62.2C62.5916 62.2 65.8476 63.0067 68.077 64.62C70.3356 66.2333 71.465 68.6387 71.465 71.836C71.465 73.86 70.9223 75.5907 69.837 77.028C68.781 78.4653 67.2116 79.536 65.129 80.24ZM58.661 65.94C56.8423 65.94 55.449 65.984 54.481 66.072V77.556H57.517C58.9836 77.556 60.3036 77.4827 61.477 77.336C62.6503 77.1893 63.633 76.9107 64.425 76.5C65.2463 76.0893 65.877 75.5173 66.317 74.784C66.757 74.0213 66.977 73.024 66.977 71.792C66.977 70.648 66.757 69.6947 66.317 68.932C65.877 68.1693 65.2756 67.568 64.513 67.128C63.7796 66.688 62.8996 66.38 61.873 66.204C60.8756 66.028 59.805 65.94 58.661 65.94ZM77.8848 93V62.508H96.4968V66.16H82.1528V75.224H94.9128V78.788H82.1528V89.348H97.5968V93H77.8848ZM123.922 93C123.276 91.9147 122.528 90.6973 121.678 89.348C120.856 87.9987 119.962 86.6053 118.994 85.168C118.026 83.7013 117.014 82.22 115.958 80.724C114.931 79.228 113.904 77.7907 112.878 76.412C111.851 75.004 110.854 73.684 109.886 72.452C108.918 71.22 108.023 70.1347 107.202 69.196V93H103.022V62.508H106.41C107.788 63.9747 109.255 65.6907 110.81 67.656C112.394 69.592 113.948 71.6013 115.474 73.684C117.028 75.7373 118.48 77.7613 119.83 79.756C121.208 81.7507 122.367 83.5253 123.306 85.08V62.508H127.486V93H123.922Z" fill="black"/>
</svg>
